<?xml version="1.0" encoding="iso-8859-1"?>
<!-- Generator: Adobe Illustrator 19.0.0, SVG Export Plug-In . SVG Version: 6.00 Build 0)  -->
<svg version="1.1" id="Layer_1" xmlns="http://www.w3.org/2000/svg" xmlns:xlink="http://www.w3.org/1999/xlink" x="0px" y="0px"
	 viewBox="0 0 512 512" style="enable-background:new 0 0 512 512;" xml:space="preserve">
<polygon style="fill:#F2BF7E;" points="250.489,368.556 250.489,159.149 298.653,159.149 298.653,143.398 298.653,6.282 
	26.424,6.282 26.424,504.671 298.653,504.671 298.653,383.941 298.653,368.556 "/>
<polyline style="fill:#FFFFFF;" points="267.242,383.215 267.242,424.049 57.835,424.049 57.835,39.787 267.242,39.787 
	267.242,143.444 "/>
<rect x="166.426" y="215.564" style="fill:#E2804F;" width="56.127" height="152.344"/>
<rect x="254.618" y="159.432" style="fill:#D4E4AC;" width="56.127" height="208.475"/>
<rect x="342.82" y="95.291" style="fill:#E2804F;" width="56.127" height="272.616"/>
<rect x="431.022" y="23.129" style="fill:#D4E4AC;" width="56.127" height="344.778"/>
<rect x="50.509" y="456.507" width="31.411" height="15.706"/>
<rect x="243.163" y="456.507" width="31.411" height="15.706"/>
<rect x="154.165" y="456.507" style="fill:#FFFFFF;" width="16.753" height="15.706"/>
<rect x="106.002" y="63.869" style="fill:#D4E4AC;" width="64.916" height="15.706"/>
<rect x="178.247" y="63.869" width="16.753" height="15.706"/>
<rect x="202.329" y="63.869" style="fill:#D4E4AC;" width="16.753" height="15.706"/>
<rect x="226.411" y="63.869" width="16.753" height="15.706"/>
<path d="M230.401,375.758h-71.832v-168.05h71.832V375.758z M174.275,360.052h40.421V223.413h-40.421V360.052z"/>
<path d="M318.601,375.758h-71.832V151.58h71.832V375.758z M262.474,360.052h40.421V167.286h-40.421V360.052z"/>
<path d="M406.8,375.758h-71.833V87.436h71.832v288.322H406.8z M350.673,360.052h40.421V103.141h-40.421V360.052z"/>
<path d="M494.999,375.758h-71.832V15.272h71.832V375.758z M438.873,360.052h40.421V30.978h-40.421V360.052z"/>
<polygon points="305.982,512 17.001,512 17.001,0 305.982,0 305.982,143.444 290.277,143.444 290.277,15.706 32.706,15.706 
	32.706,496.294 290.277,496.294 290.277,383.215 305.982,383.215 "/>
<polygon points="273.524,432.425 50.506,432.425 50.506,31.411 273.524,31.411 273.524,143.444 257.819,143.444 257.819,47.117 
	66.211,47.117 66.211,416.72 257.819,416.72 257.819,383.215 273.524,383.215 "/>
<g>
</g>
<g>
</g>
<g>
</g>
<g>
</g>
<g>
</g>
<g>
</g>
<g>
</g>
<g>
</g>
<g>
</g>
<g>
</g>
<g>
</g>
<g>
</g>
<g>
</g>
<g>
</g>
<g>
</g>
</svg>
